<svg xmlns="http://www.w3.org/2000/svg" viewBox="0 0 360.04 93.61"><defs><style>.cls-1{fill:none;}.cls-2{fill:#245631;}.cls-3{fill:#606a6b;}.cls-4{fill:#255532;}.cls-5{fill:#6b8e3b;}.cls-6{fill:#275632;}.cls-7{fill:#63863f;}.cls-8{fill:#536239;}.cls-9{fill:#5f696b;}</style></defs><g id="Calque_2" data-name="Calque 2"><g id="Calque_1-2" data-name="Calque 1"><path class="cls-1" d="M221.57,53.35c.33-2.8-1.46-4.2-4.08-3.17a7.51,7.51,0,0,0-2.85,1.91,17.6,17.6,0,0,0-4.35,11,12.07,12.07,0,0,0,4.23-1.33C218.08,60,221.06,57.68,221.57,53.35Z"/><path class="cls-1" d="M154.69,19.69c0-.14,0-.29,0-.45A1,1,0,0,0,154.69,19.69Z"/><path class="cls-1" d="M163.06,10.41c-.58.42-9.33,3.24-15,9-.5.81.09,1.71.5,2.54l0,0s0-.06,0-.09a27.82,27.82,0,0,1,6.88-5.66C158.46,13.78,161.08,12.87,163.06,10.41Z"/><path class="cls-1" d="M278.79,55.53c.76-1.68,1.31-3.73-.45-5.05s-3.66-.31-5.18,1c-3.4,3-4.43,7.06-5,11.7C273,62,276.79,59.94,278.79,55.53Z"/><path class="cls-1" d="M313.19,38.77a36.44,36.44,0,0,1-8.48-.27c-.9-.19-1.64.42-1.73,2.07a26.72,26.72,0,0,1-.67,3.39c-1.61,8.11-3.25,16.21-4.8,24.33-.35,1.86-.17,3.77,1.69,4.85,1.7,1,3.36.35,4.86-.67a11.73,11.73,0,0,0,5.18-6.74c2-8.41,3.6-16.92,5.39-25.38C314.91,39,314.51,38.66,313.19,38.77Z"/><path class="cls-1" d="M346.57,56.19c1-1.78,1.75-4-.11-5.58-2-1.68-4-.39-5.62,1.14-3.2,3-4.17,7-4.75,11.45C340.77,62.19,344.39,60.16,346.57,56.19Z"/><path class="cls-2" d="M126.32,46a10.22,10.22,0,0,0-6.51,4c-1.08,1.35-2.08,2.74-3.22,4.25a35.51,35.51,0,0,0,.5-4.53c-.06-2.34-2-3.81-4.59-3.71-2.31.09-3.62.85-3.49,3.66.2,4.35-1.22,8.57-1.9,12.85-.72,4.5-3.54,7.63-7.15,10.08-1.65,1.12-3.6,1.62-5.47.48s-1.76-2.91-1.56-4.66a93.88,93.88,0,0,1,2.27-12.2c.43-1.67.28-3.65,1.15-5,1.11-1.76,3.34-.56,5.06-.78,3.12-.39,4.37-2.28,3.41-5.38-1.86,1-3.9,1-5.93,1.11-1.24.06-1.76-.23-1.41-1.64a27.15,27.15,0,0,0,.77-4.83c.18-2.78-1.59-3.73-4-3.83-2.1-.09-4.11-.13-3.92,3,.09,1.49-.71,3-.8,4.53-.13,2.23-1.18,3-3.32,2.88-1.77-.1-3.08.73-3.13,2.64-.06,2.38,1.82,1.49,3,1.42,1.65-.09,2.2.11,1.74,2-1,4.12-1.51,8.34-2.42,12.48a12.66,12.66,0,0,1-5.84,8c-2.65,1.71-4.73.46-4.7-2.7a25,25,0,0,1,.44-4.31c.93-5.12,2-10.21,2.86-15.34.44-2.57-1-4.17-3.71-4.48-2.88-.32-3.92.54-4.27,3.36a56.16,56.16,0,0,1-4.88,16.87,16.61,16.61,0,0,1-4.61,6.23,3,3,0,0,1-3.23.66,2.82,2.82,0,0,1-1.55-2.88,25.75,25.75,0,0,1,.33-4c.92-5.12,2-10.21,2.88-15.34.48-2.82-1.29-4.71-4.32-4.93-2.67-.19-3.52.77-3.76,3.83-.14,1.81-.57,3.6-.85,5.41-.84,5.32-2.51,10.52-2.52,16,0,6.45,5,9.74,11,7.45,3.63-1.38,5.77-4.28,7.88-7.49.87,5.24,2,7.08,5,7.85,6,1.54,9.86-1.81,13.5-6.29,2.75,8.91,10.39,9.08,20,.81,0,1-.07,1.91,0,2.83.25,2.56,2.28,3,4.21,3,1.76,0,3.82.24,3.91-2.85a40.08,40.08,0,0,1,2.68-12.67A28.18,28.18,0,0,1,121.32,54a3.17,3.17,0,0,1,3.38-1.11c1.17.36,1.29,1.39,1.08,2.38s.35,1,1.1,1c2.92-.09,5.72-3.33,5.5-6.39C132.18,47.36,129.42,45.52,126.32,46Z"/><path class="cls-3" d="M213.91,87.74c-6.62-.86-10.82-5.09-14.32-10.27-4.22-6.24-6.19-13.67-11-19.93a20.22,20.22,0,0,0,10.85-6.2c5.11-5.67,6-18-4.61-21.83S173.79,26.59,164.18,33a13.65,13.65,0,0,0-6.39,12.27,5.85,5.85,0,0,0,6.72,5.54c1.22-.21,1.93-.54,1.27-2.1-1.95-4.63-1-8.89,2.66-12.33,5-4.77,14.59-6.33,20.9-3.42a8.27,8.27,0,0,1,5.25,8.19c0,8.25-4.52,12.92-13.42,13.85-2,.21-2.66-.26-2.19-2.29.92-4,1.76-8.09,2.55-12.16.69-3.52-.63-4.83-4.23-4.44-2.28.25-3.79,1.06-3.76,3.73a20.44,20.44,0,0,1-.78,4.26c-2.15,9.88-4.35,19.75-6.44,29.65-.87,4.1,1,6,5.23,5.49,1.12-.13,2.72.23,2.74-1.76,0-5.27,1.63-10.26,2.76-15.33.26-1.16-.23-2.84,1.93-3a3.57,3.57,0,0,1,3.9,2.29c1.69,3.78,3.48,7.51,5.12,11.31,2.88,6.63,6.48,12.72,12.34,17.19s13.57,4.91,19.4,1c1.69-1.14,3.32-2.42,2.44-5.1A12.26,12.26,0,0,1,213.91,87.74Z"/><path class="cls-4" d="M51.22,30.84c1.34-1,.23-1.87-.61-2.51-2.85-2.16-6.88-.8-8.47,3-2.33,5.54-3.36,11.44-4.42,17.31s-2,12-3.14,18.61c-2.49-6.22-4.74-11.83-7-17.46s-4.44-11.5-6.8-17.19c-1.64-4-4.32-5.46-7.87-4.74-1.1.22-1.84.56-2,2a274.6,274.6,0,0,1-6.05,35c-.79,3.45-1.56,7-3.78,9.91C-.65,77.08-.39,78.09,2.4,79.18s5.49-.25,6.42-3.45C12,64.9,13.2,53.7,15,42c2.73,4.3,3.83,8.77,5.6,12.94,2.9,6.82,5.62,13.71,8.61,20.49a6.54,6.54,0,0,0,7.91,3.75A2.08,2.08,0,0,0,39,77.05a208.19,208.19,0,0,1,5.88-33C46.06,39.32,46.74,34.15,51.22,30.84Z"/><path class="cls-5" d="M148.58,21.94c-.41-.83-1-1.73-.5-2.54,5.65-5.75,14.4-8.57,15-9-2,2.46-4.68,3.41-7.63,5.87.72.41,1.41.81.35,1.62a3.1,3.1,0,0,0-1.2,1.34,5.15,5.15,0,0,0,0,.55,3.86,3.86,0,0,0,.15.39,3.49,3.49,0,0,0,3,1.53c3.4.06,6.65-.08,9.75-1.72l-.19.2c.12-.09.19-.25.31-.34C172.74,14.31,174,7.62,174.13,0a26.91,26.91,0,0,1-9.06,3.42,79.42,79.42,0,0,0-8.74,2,14,14,0,0,0-10.42,14.26c0,.41-.12,3.33.83,4.1.24-.34.47-.69.74-1Z"/><path class="cls-5" d="M148.59,22v0l0,0A.17.17,0,0,1,148.59,22Z"/><path class="cls-6" d="M151.28,67.06c-1-.46-1.24.71-1.56,1.28A11.11,11.11,0,0,1,145,73.21c-2.47,1.2-4.22.12-4.27-2.59A12.49,12.49,0,0,1,141,68c1.11-5.86,2.24-11.72,3.27-17.08.09-2.18-.39-3.52-2-4.29a5.55,5.55,0,0,0-5.28,0,1.41,1.41,0,0,0-.72,1.44c.09,4.29-1.18,8.36-2,12.5-.61,3.22-1.24,6.44-1.65,9.68-.67,5.21,1.72,8.53,6.42,9.19,5,.7,12.57-5,13.44-10A2,2,0,0,0,151.28,67.06Z"/><path class="cls-7" d="M167.55,19.85c-3.1,1.64-6.45,1.76-9.84,1.7a3.38,3.38,0,0,1-2.9-1.58,1.31,1.31,0,0,1-.12-.28,1,1,0,0,1,0-.45,3.17,3.17,0,0,1,1.2-1.34c1.06-.81.31-1.25-.41-1.66A28.65,28.65,0,0,0,148.55,22s0,0,0,.07v0c.14.66-.09,1.39.82,1.79.74.32.4.39.1.59a.59.59,0,0,0-.26.43h0c2,.07,4,.25,6,.2,4.62-.11,8.81-1.35,12-4.9C167.35,20.08,167.45,20,167.55,19.85Z"/><path class="cls-8" d="M149.42,23.81c-.91-.4-.69-1.15-.83-1.8a.17.17,0,0,0,0-.07l-1.1.8c-.27.33-.5.68-.74,1A26.1,26.1,0,0,0,142,38.87c2.31-4.72,3.32-10.08,7.17-14h0C149.18,24.5,150.53,24.3,149.42,23.81Z"/><path class="cls-9" d="M317.22,66.28c1.85-8.86,3.74-17.71,5.55-26.57.2-1,.49-1.52,1.52-1.71,4.85-.9,9.68-2.21,14.22,1.12a12.14,12.14,0,0,0,2.95,1.14,26,26,0,0,0,5.78,0c4.61-1.15,8.53-3.3,11.19-7.44,2.81-4.38,2-7.46-2.83-9.61-5.52-2.45-15.21-2.54-20.73,5.45-2.14,3.11-5.09,4.61-8.6,5.51-2.3.59-2.5-.53-2.2-2.22s.91-3.54,1-5.33c.16-2.25-1.59-3.74-4.05-3.79-3.21-.06-4.25.73-4,3.64.21,2.45-.14,3.17-.46,6-.26,2.32-5,1.92-7.49,1.79-.74,0-1.54,0-2.31-.08-1.67-.17-2.68-.78-2-2.76a22.74,22.74,0,0,0,1-4.16,3.82,3.82,0,0,0-3.57-4.4c-1.63-.18-3.73-.58-4.16,1.82-.36,1.95-1.16,3.88-1.21,5.75-.06,2.34-1.19,2.27-2.71,2.11-3.61-.39-7.23-.84-10.84-1.26a28.69,28.69,0,0,0-6.93,0,77.69,77.69,0,0,0-10.65,1.22,13.18,13.18,0,0,0-5.9,2.23c-1.27,1-2.1,2.36-1.18,4.06a2.86,2.86,0,0,0,3.86,1.49c10.77-3.61,21.79-3.73,33-2.3-1.59,7.72-3.41,15.3-4.65,23a15.12,15.12,0,0,1-8.11,11.55c-5.23,2.89-11.33,1.77-13.59-2.51-1.4-2.65-1.19-3.08,1.72-3.89,4.6-1.27,9-2.91,12.48-6.37,2.65-2.62,3.75-5.69,2.38-9.19s-4.56-4.51-8-4.63c-9-.32-17.14,7.53-17.53,17.64-.14,3.65-1.81,5.69-4.31,7.58a14.93,14.93,0,0,1-6,2.67c-6,1.21-10.36-2.18-10.56-8.25A22.48,22.48,0,0,1,242,54.15a8.06,8.06,0,0,1,3.11-3.35c1.62-.92,3.4-1.75,5.1-.29s1.41,3.18.54,4.79c-1.11,2,0,2.61,1.63,2.87a4.31,4.31,0,0,0,4.79-2.47c1.79-3.35-.2-7.78-4.15-9a15.09,15.09,0,0,0-14,2.44c-5.34,3.85-7.39,9.43-7.89,15.74-.1,1.23,0,2.44-1,3.51A17.51,17.51,0,0,1,220.63,74a8.51,8.51,0,0,1-9.47-4.48c-1-1.92-.9-2.79,1.48-3.3a26.5,26.5,0,0,0,12.18-5.71c3.43-3,4.61-7,3.09-10.36-1.28-2.82-5.78-4.73-9.81-4.15-.19,0-.37.08-.57.11-11.09,1.76-16.6,12.59-15.34,22.14a12.09,12.09,0,0,0,7.2,9.83c6.11,2.86,16.16.76,20.23-4.57,1.76-2.3,2.66-1.62,3.61.31a9.2,9.2,0,0,0,3.44,3.62c6.36,4.32,17,1.15,21.13-3.26,2.68-2.88,2.84-2.82,4.76.57a8.37,8.37,0,0,0,1,1.4,14.46,14.46,0,0,0,8.59,4.11c5.29.84,10.22-1.33,14.4-4.72,1.43-1.16,2.09-1.14,3.31.55a7.28,7.28,0,0,0,2,2,8.21,8.21,0,0,0,3.24,1.67,10.78,10.78,0,0,0,10.86-3c1.7-1.67,3-1.65,4.52-.1,3,2.72,6.29,3.65,10.23,2.24A17.31,17.31,0,0,0,328,73.45c.75-.88,1.24-1.17,1.78.18,1.15,2.87,3.6,4.14,6.39,4.94,2.36.92,2,.8,3.56.94a21.57,21.57,0,0,0,6.31-.69c4.52-1.39,8.5-3.5,10.56-8.15a1.89,1.89,0,0,0-.28-2.33c-1-1-1.28.32-1.78.67-1.67,1.17-3.2,2.56-4.91,3.68-4.67,3-10.9,1.26-12.92-3.4-.88-2-.35-2.63,1.58-3.09a29.18,29.18,0,0,0,13-6.38,8.42,8.42,0,0,0,2.79-8.58c-.6-2.81-2.9-4.08-5.56-4.83a13.27,13.27,0,0,0-9.8,1.05C331.55,51,328.33,57,328.05,64.7a9.07,9.07,0,0,1-3.17,6.78c-1.73,1.57-3.68,2.83-6,1.84-2.47-1.07-1.92-3.49-1.79-5.6A11.49,11.49,0,0,1,317.22,66.28ZM214.64,52.09a7.51,7.51,0,0,1,2.85-1.91c2.62-1,4.41.37,4.08,3.17-.51,4.33-3.49,6.64-7,8.45a12.07,12.07,0,0,1-4.23,1.33A17.6,17.6,0,0,1,214.64,52.09Zm58.52-.57c1.52-1.35,3.31-2.43,5.18-1s1.21,3.37.45,5.05c-2,4.41-5.83,6.47-10.65,7.69C268.73,58.58,269.76,54.54,273.16,51.52Zm41.47-11.17c-1.79,8.46-3.39,17-5.39,25.38a11.73,11.73,0,0,1-5.18,6.74c-1.5,1-3.16,1.66-4.86.67-1.86-1.08-2-3-1.69-4.85,1.55-8.12,3.19-16.22,4.8-24.33a26.72,26.72,0,0,0,.67-3.39c.09-1.65.83-2.26,1.73-2.07a36.44,36.44,0,0,0,8.48.27C314.51,38.66,314.91,39,314.63,40.35Zm26.21,11.4c1.62-1.53,3.6-2.82,5.62-1.14,1.86,1.55,1.09,3.8.11,5.58-2.18,4-5.8,6-10.48,7C336.67,58.72,337.64,54.76,340.84,51.75Z"/></g></g></svg>